<?xml version="1.0" encoding="UTF-8"?>
<!DOCTYPE svg PUBLIC "-//W3C//DTD SVG 1.1//EN" "http://www.w3.org/Graphics/SVG/1.1/DTD/svg11.dtd">
<!-- Creator: CorelDRAW X7 -->
<svg xmlns="http://www.w3.org/2000/svg" xml:space="preserve" width="6.1297in" height="1.62696in" version="1.1" style="shape-rendering:geometricPrecision; text-rendering:geometricPrecision; image-rendering:optimizeQuality; fill-rule:evenodd; clip-rule:evenodd"
viewBox="0 0 6536 1735"
 xmlns:xlink="http://www.w3.org/1999/xlink">
 <defs>
  <style type="text/css">
   <![CDATA[
    .fil0 {fill:#ffffff;fill-rule:nonzero}
    .fil1 {fill:#ffffff;fill-rule:nonzero}
   ]]>
  </style>
 </defs>
 <g id="Layer_x0020_1">
  <metadata id="CorelCorpID_0Corel-Layer"/>
  <polygon class="fil0" points="2596,874 2596,1420 2441,1420 2441,874 2267,874 2267,747 2771,747 2771,874 "/>
  <path class="fil0" d="M3156 1297c13,-5 23,-14 29,-26 5,-13 8,-31 8,-55 0,-24 -3,-42 -8,-54 -6,-12 -16,-21 -30,-26 -13,-5 -34,-7 -60,-7l-81 0 0 175 81 0c27,0 47,-2 61,-7zm-15 -283c11,-5 19,-13 24,-24 4,-11 7,-27 7,-50 0,-22 -3,-38 -7,-49 -5,-11 -13,-19 -24,-24 -12,-4 -28,-7 -51,-7l-76 0 0 161 75 0c23,0 40,-3 52,-7zm-35 -267c140,0 210,60 210,180 0,43 -9,76 -29,101 -20,24 -48,37 -84,40 45,2 81,17 106,44 24,27 37,65 37,114 0,129 -79,194 -236,194l-246 0 0 -673 242 0z"/>
  <path class="fil0" d="M3501 1344c-51,-58 -77,-144 -77,-260 0,-231 103,-347 308,-347 52,0 99,8 142,23l-29 123c-29,-15 -64,-23 -104,-23 -44,0 -77,7 -99,19 -23,13 -39,35 -48,67 -9,31 -14,77 -14,138 0,61 5,106 14,137 9,31 24,53 47,65 22,13 55,19 97,19 48,0 88,-10 121,-29l28 127c-45,18 -97,26 -155,26 -103,0 -180,-28 -231,-85z"/>
  <path class="fil0" d="M4551 1346c21,-7 36,-20 45,-37 9,-18 14,-44 14,-78 0,-34 -5,-61 -14,-79 -9,-18 -25,-31 -48,-38 -22,-7 -55,-11 -97,-11l-123 0 0 255 129 0c41,0 72,-4 94,-12zm-21 -316c19,-7 32,-18 40,-35 8,-16 12,-40 12,-71 0,-31 -4,-54 -11,-71 -8,-16 -20,-28 -38,-34 -18,-7 -43,-10 -77,-10l-128 0 0 231 120 0c36,0 63,-3 82,-10zm-71 -283c129,0 193,58 193,174 0,46 -9,81 -28,107 -18,25 -45,39 -79,41 44,2 78,16 102,44 24,28 36,68 36,119 0,126 -75,188 -224,188l-202 0 0 -673 202 0z"/>
  <path class="fil0" d="M5030 832l-122 363 244 0 -122 -363zm-143 425l-55 163 -78 0 242 -673 69 0 242 673 -79 0 -55 -163 -286 0z"/>
  <polygon class="fil0" points="5486,747 5831,1276 5831,747 5900,747 5900,1420 5841,1420 5495,891 5495,1420 5426,1420 5426,747 "/>
  <polygon class="fil0" points="6149,1086 6149,1420 6076,1420 6076,747 6149,747 6149,1067 6417,747 6509,747 6222,1076 6536,1420 6437,1420 "/>
  <path class="fil1" d="M862 961c8,81 12,124 -54,194 -69,73 -242,207 -419,309 -75,43 -176,95 -252,123 -57,20 -104,29 -128,-12 -15,-27 -8,-51 0,-72 62,-167 239,-479 355,-682 12,-20 24,-42 36,-63 178,-307 414,-683 461,-744 6,-8 19,-18 30,-12 9,5 9,16 8,24 0,1 -3,12 -4,17 -77,310 -68,614 -33,918z"/>
  <path class="fil1" d="M1122 1056c-75,-34 -114,-52 -141,-144 -29,-96 -58,-313 -58,-517 0,-86 5,-200 19,-280 11,-59 27,-105 75,-105 30,0 47,19 62,37 114,136 295,446 413,647 12,21 24,42 36,64 177,308 385,700 414,770 4,10 7,26 -4,33 -10,5 -19,-1 -25,-5 -1,-1 -9,-9 -13,-12 -230,-222 -498,-367 -778,-488z"/>
  <path class="fil1" d="M909 1234c67,-48 102,-73 196,-51 97,24 299,107 477,209 74,43 170,104 232,156 46,39 77,76 54,117 -16,27 -40,32 -63,36 -175,30 -534,32 -767,34 -24,0 -49,0 -74,0 -355,-1 -798,-17 -874,-27 -11,-2 -26,-7 -25,-20 0,-11 9,-16 16,-19 2,-1 12,-4 17,-5 307,-89 566,-248 811,-430z"/>
 </g>
</svg>
